<svg width="24" height="27" viewBox="0 0 24 27" fill="none" xmlns="http://www.w3.org/2000/svg">
<path d="M16.1879 26.2046C16.4074 26.6887 16.8868 27 17.4067 27L22.5855 26.9965C23.0041 26.9862 23.3417 26.8444 23.5949 26.5746C23.8683 26.2841 24 25.9348 24 25.5094C24 25.333 23.9426 25.1048 23.8312 24.8281L14.1589 1.43525C13.9733 1.00986 13.7099 0.657102 13.3791 0.390802C13.0516 0.127961 12.6634 0 12.1874 0H11.8093C11.3366 0 10.9349 0.13142 10.6175 0.390802C10.2867 0.66056 10.0233 1.01332 9.83767 1.43871L0.1688 24.8316C0.057392 25.1082 0 25.3365 0 25.5094C0 25.9383 0.131662 26.2876 0.401742 26.5746C0.671823 26.8617 1.01618 27 1.45506 27C1.76227 27 2.03235 26.917 2.28555 26.751C2.53538 26.5815 2.72781 26.3498 2.85272 26.0662L5.08088 20.5604V20.5811L5.92151 18.5268L11.9983 3.57948L18.0279 18.5614L20.3809 24.2436H18.2642L13.1867 11.9489C12.9774 11.4855 12.5216 11.1777 12.0186 11.1569C11.4514 11.1777 10.9079 11.5408 10.7188 12.0215L7.01196 21.0861C6.84653 21.508 6.89717 21.9887 7.147 22.3692C7.39682 22.7496 7.81544 22.9744 8.26108 22.9744H11.6843C12.4271 22.9744 13.0314 22.3553 13.0314 21.5945C13.0314 20.8336 12.4271 20.2146 11.6843 20.2146H10.2495L11.9983 15.9711L16.1879 26.2046Z" fill="white"/>
</svg>
