<svg width="30" height="30" viewBox="0 0 30 30" fill="none" xmlns="http://www.w3.org/2000/svg">
<path stroke="#000000" d="M7.5 15C1.57958 15 0.963163 17.5 1.91934 20C3.93218 25.2627 9.02969 29 15.0001 29C22.7321 29 29.0001 22.732 29.0001 15C29.0001 7.26801 22.7321 1 15.0001 1C8.65804 1 3.30094 5.21702 1.57984 11" stroke-width="2" stroke-linecap="round"/>
<path stroke="#000000" d="M17 12H21" stroke-width="2" stroke-linecap="round"/>
<path stroke="#000000" d="M17 17H21" stroke-width="2" stroke-linecap="round"/>
<path d="M16.9937 14.5C16.9937 17.5376 17.1143 20 15.5 20C12.8857 20 8 18.9723 8 14.5C8 10.0277 12.8857 9 15.5 9C17.1143 9 16.9937 11.4624 16.9937 14.5Z" stroke="#000000" stroke-width="2" stroke-linecap="round"/>
</svg>
