<svg width="26" height="26" viewBox="0 0 26 26" fill="none" xmlns="http://www.w3.org/2000/svg">
<rect stroke="#000000" width="6" height="6" rx="1" transform="matrix(-1 0 0 1 24.9998 1)" stroke-width="2" stroke-linecap="round"/>
<rect stroke="#000000" width="6" height="6" rx="1" transform="matrix(-1 0 0 1 15.9998 10)" stroke-width="2" stroke-linecap="round"/>
<path stroke="#000000" d="M3.99976 18V14C3.99976 13.4477 4.44747 13 4.99976 13H9.99976" stroke-width="2" stroke-linecap="round"/>
<path stroke="#000000" d="M3.99976 18V14C3.99976 13.4477 4.44747 13 4.99976 13H9.99976" stroke-width="2" stroke-linecap="round"/>
<path stroke="#000000" d="M16.9998 13L20.9998 13C21.552 13 21.9998 12.5523 21.9998 12L21.9998 7" stroke-width="2" stroke-linecap="round"/>
<rect stroke="#000000" width="6" height="6" rx="1" transform="matrix(-1 0 0 1 6.99976 19)" stroke-width="2" stroke-linecap="round"/>
</svg>
