<svg width="36" height="36" viewBox="0 0 36 36" fill="none" xmlns="http://www.w3.org/2000/svg">
<path d="M31.6923 15.9505L19.3232 4.51595C18.579 3.82802 17.421 3.82802 16.6768 4.51595L4.30767 15.9505C3.66794 16.5419 4.09235 17.6002 4.96925 17.6002H6.39237C7.46082 17.6002 8.32697 18.4543 8.32697 19.5079V28.0923C8.32697 29.1459 9.19312 30 10.2616 30H13.1635C14.2319 30 15.0981 29.1459 15.0981 28.0923V25.2309C15.0981 24.1773 15.9642 23.3232 17.0327 23.3232H18.9673C20.0358 23.3232 20.9019 24.1773 20.9019 25.2309V28.0923C20.9019 29.1459 21.7681 30 22.8365 30H25.7384C26.8069 30 27.673 29.1459 27.673 28.0923V19.5079C27.673 18.4543 28.5392 17.6002 29.6076 17.6002H31.0308C31.9076 17.6002 32.3321 16.5419 31.6923 15.9505Z" stroke="#000000" stroke-width="2" stroke-linecap="round"/>
</svg>
