<svg width="30" height="30" viewBox="0 0 30 30" fill="none" xmlns="http://www.w3.org/2000/svg">
<path d="M10.2451 28.1718C4.85366 26.2252 1 21.0627 1 15C1 7.26801 7.26801 1 15 1C22.732 1 29 7.26801 29 15C29 22.055 23.7815 27.8912 16.9941 28.8591C15.9006 29.015 15 28.1046 15 27V25.5" stroke="black" stroke-width="2" stroke-linecap="round"/>
<path d="M10 11.8276C10 9.16138 12.2386 7 15 7C17.7614 7 20 9.16138 20 11.8276C20 13.8256 18.7429 15.5401 16.9507 16.274C15.9285 16.6925 15 17.5506 15 18.6552V21" stroke="black" stroke-width="2" stroke-linecap="round"/>
</svg>
