<svg width="28" height="30" viewBox="0 0 28 30" fill="none" xmlns="http://www.w3.org/2000/svg">
<path stroke="#000000" d="M10 5.5L21 6.5M23 9L22 16M8.5 9.5L16 18M8.65083 8.65083C6.87643 10.4252 4.02732 10.453 2.28717 8.71283C0.547016 6.97268 0.574776 4.12357 2.34917 2.34917C4.12357 0.574776 6.97268 0.547017 8.71283 2.28717C10.453 4.02732 10.4252 6.87643 8.65083 8.65083ZM25.0512 27.0512C22.4882 29.6142 18.3728 29.6543 15.8592 27.1408C13.3457 24.6272 13.3858 20.5118 15.9488 17.9488C18.5118 15.3858 22.6272 15.3457 25.1408 17.8592C27.6543 20.3728 27.6142 24.4882 25.0512 27.0512ZM25.2505 8.25046C24.2647 9.23624 22.6818 9.25166 21.7151 8.28491C20.7483 7.31815 20.7638 5.73532 21.7495 4.74954C22.7353 3.76376 24.3182 3.74834 25.2849 4.71509C26.2517 5.68185 26.2362 7.26468 25.2505 8.25046ZM7.25046 20.2505C6.26468 21.2362 4.68185 21.2517 3.71509 20.2849C2.74834 19.3182 2.76376 17.7353 3.74954 16.7495C4.73532 15.7638 6.31815 15.7483 7.2849 16.7151C8.25166 17.6818 8.23624 19.2647 7.25046 20.2505Z" stroke-width="2" stroke-linecap="round"/>
</svg>
