<svg width="30" height="31" viewBox="0 0 30 31" fill="none" xmlns="http://www.w3.org/2000/svg">
<path d="M14.9636 4.32779L13.9637 4.31945L13.9637 4.31981L14.9636 4.32779ZM7.63586 4.95068L7.77256 5.94129L8.54173 5.83515L8.62945 5.06365L7.63586 4.95068ZM3.86556 9.55079L4.37035 10.414L4.88827 10.1112L4.86479 9.51166L3.86556 9.55079ZM1.92239 17.7917L2.86338 18.1301L3.02961 17.6679L2.76544 17.2539L1.92239 17.7917ZM3.4827 23.3353L4.4823 23.3637L4.49651 22.8619L4.10265 22.5507L3.4827 23.3353ZM6.35788 27.925L7.18345 27.3607L7.02208 27.1246L6.76029 27.0096L6.35788 27.925ZM15 4.32779L16 4.31981H14L15 4.32779ZM13.2225 18.2891C13.4932 17.8077 13.3224 17.198 12.841 16.9273C12.3596 16.6566 11.7499 16.8274 11.4792 17.3088L13.2225 18.2891ZM7.87368 15.1187C8.1444 14.6373 7.97361 14.0276 7.49222 13.7569C7.01084 13.4862 6.40114 13.657 6.13043 14.1383L7.87368 15.1187ZM7.46375 22.4561C6.98159 22.7255 6.80906 23.3347 7.0784 23.8168C7.34774 24.299 7.95695 24.4715 8.4391 24.2022L7.46375 22.4561ZM9.70827 18.8771C9.44965 18.3892 8.8444 18.2032 8.35641 18.4618C7.86842 18.7205 7.68249 19.3257 7.94111 19.8137L9.70827 18.8771ZM9.66108 9.78597C10.1967 9.92045 10.74 9.59522 10.8745 9.05956C11.009 8.5239 10.6837 7.98064 10.1481 7.84616L9.66108 9.78597ZM8.61117 5.21497C8.73913 4.67771 8.40734 4.13844 7.87008 4.01047C7.33283 3.88251 6.79356 4.2143 6.66559 4.75156L8.61117 5.21497ZM15.0364 4.32779L16.0363 4.31981L16.0363 4.31945L15.0364 4.32779ZM22.3641 4.95068L21.3705 5.06365L21.4583 5.83515L22.2274 5.94129L22.3641 4.95068ZM26.1344 9.55079L25.1352 9.51166L25.1117 10.1112L25.6296 10.414L26.1344 9.55079ZM28.0776 17.7917L27.2346 17.2539L26.9704 17.6679L27.1366 18.1301L28.0776 17.7917ZM26.5173 23.3353L25.8974 22.5507L25.5035 22.8619L25.5177 23.3637L26.5173 23.3353ZM23.6421 27.925L23.2397 27.0096L22.9779 27.1246L22.8165 27.3607L23.6421 27.925ZM18.5208 17.3088C18.2501 16.8274 17.6404 16.6566 17.159 16.9273C16.6776 17.198 16.5068 17.8077 16.7775 18.2891L18.5208 17.3088ZM23.8696 14.1383C23.5989 13.657 22.9892 13.4862 22.5078 13.7569C22.0264 14.0276 21.8556 14.6373 22.1263 15.1187L23.8696 14.1383ZM21.5609 24.2022C22.0431 24.4715 22.6523 24.299 22.9216 23.8168C23.1909 23.3347 23.0184 22.7255 22.5363 22.4561L21.5609 24.2022ZM22.0589 19.8137C22.3175 19.3257 22.1316 18.7205 21.6436 18.4618C21.1556 18.2032 20.5504 18.3892 20.2917 18.8771L22.0589 19.8137ZM19.8519 7.84616C19.3163 7.98064 18.991 8.5239 19.1255 9.05956C19.26 9.59522 19.8033 9.92045 20.3389 9.78597L19.8519 7.84616ZM23.3344 4.75156C23.2064 4.2143 22.6672 3.88251 22.1299 4.01047C21.5927 4.13844 21.2609 4.67771 21.3888 5.21497L23.3344 4.75156ZM13.9637 4.31981C13.9624 4.4807 13.9818 5.57038 13.9818 5.68438H15.9818C15.9818 5.38116 15.9617 4.57672 15.9636 4.33577L13.9637 4.31981ZM11.966 2C12.9045 2 13.3211 2.2407 13.5369 2.49422C13.7819 2.78202 13.972 3.31984 13.9637 4.31945L15.9636 4.33613C15.9735 3.15481 15.7671 2.02873 15.0599 1.19787C14.3235 0.332728 13.2321 0 11.966 0V2ZM8.62945 5.06365C8.82793 3.31806 10.2662 2 11.966 2V0C9.19664 0 6.94963 2.13443 6.64226 4.8377L8.62945 5.06365ZM7.49916 3.96007C4.86093 4.32413 2.86288 6.63249 2.86288 9.38637H4.86288C4.86288 7.60465 6.15015 6.16517 7.77256 5.94129L7.49916 3.96007ZM2.86288 9.38637C2.86288 9.44705 2.86345 9.51651 2.86632 9.58992L4.86479 9.51166C4.86339 9.47582 4.86288 9.43577 4.86288 9.38637H2.86288ZM3.36076 8.68755C1.34724 9.865 0 12.0811 0 14.609H2C2 12.8028 2.96061 11.2384 4.37035 10.414L3.36076 8.68755ZM0 14.609C0 15.9784 0.395659 17.2578 1.07934 18.3295L2.76544 17.2539C2.28236 16.4966 2 15.5892 2 14.609H0ZM0.9814 17.4532C0.753884 18.0858 0.630968 18.7678 0.630968 19.4761H2.63097C2.63097 19.0002 2.71338 18.5472 2.86338 18.1301L0.9814 17.4532ZM0.630968 19.4761C0.630968 21.3607 1.50217 23.045 2.86275 24.12L4.10265 22.5507C3.21099 21.8462 2.63097 20.7348 2.63097 19.4761H0.630968ZM2.4831 23.307C2.48156 23.3613 2.48163 23.4134 2.48163 23.449H4.48163C4.48163 23.4086 4.4817 23.3849 4.4823 23.3637L2.4831 23.307ZM2.48163 23.449C2.48163 25.8564 3.90329 27.9384 5.95547 28.8405L6.76029 27.0096C5.42984 26.4247 4.48163 25.0581 4.48163 23.449H2.48163ZM5.53231 28.4893C6.56421 29.999 8.28403 31 10.2415 31V29C8.98646 29 7.86693 28.3607 7.18345 27.3607L5.53231 28.4893ZM10.2415 31C13.4365 31 15.9818 28.3483 15.9818 25.1331H13.9818C13.9818 27.2937 12.2825 29 10.2415 29V31ZM15.9818 25.1331V5.68438H13.9818V25.1331H15.9818ZM14 4.33577C14.002 4.57672 13.9818 5.38116 13.9818 5.68438H15.9818C15.9818 5.57038 16.0013 4.4807 16 4.31981L14 4.33577ZM11.4792 17.3088C10.8952 18.3472 9.62555 18.682 8.64229 18.0992L7.62249 19.8197C9.59329 20.9878 12.1009 20.2835 13.2225 18.2891L11.4792 17.3088ZM8.64229 18.0992C7.64299 17.5069 7.28139 16.1719 7.87368 15.1187L6.13043 14.1383C5.0172 16.1179 5.66773 18.661 7.62249 19.8197L8.64229 18.0992ZM8.4391 24.2022C9.43235 23.6474 10.0468 22.7923 10.2379 21.7871C10.4235 20.8112 10.1936 19.7929 9.70827 18.8771L7.94111 19.8137C8.27094 20.436 8.35344 20.9911 8.27314 21.4134C8.19842 21.8063 7.96863 22.1741 7.46375 22.4561L8.4391 24.2022ZM10.1481 7.84616C9.04326 7.56879 8.32787 6.40433 8.61117 5.21497L6.66559 4.75156C6.13863 6.96394 7.45246 9.23148 9.66108 9.78597L10.1481 7.84616ZM14.0364 4.33577C14.0383 4.57672 14.0182 5.38116 14.0182 5.68438H16.0182C16.0182 5.57038 16.0376 4.4807 16.0363 4.31981L14.0364 4.33577ZM18.034 0C16.7679 0 15.6765 0.332728 14.9401 1.19787C14.2329 2.02873 14.0265 3.15481 14.0364 4.33613L16.0363 4.31945C16.028 3.31984 16.2181 2.78202 16.4631 2.49422C16.6789 2.2407 17.0955 2 18.034 2V0ZM23.3577 4.8377C23.0504 2.13443 20.8034 0 18.034 0V2C19.7338 2 21.1721 3.31806 21.3705 5.06365L23.3577 4.8377ZM22.2274 5.94129C23.8498 6.16517 25.1371 7.60465 25.1371 9.38637H27.1371C27.1371 6.63249 25.1391 4.32413 22.5008 3.96007L22.2274 5.94129ZM25.1371 9.38637C25.1371 9.43577 25.1366 9.47582 25.1352 9.51166L27.1337 9.58992C27.1366 9.51651 27.1371 9.44705 27.1371 9.38637H25.1371ZM25.6296 10.414C27.0394 11.2384 28 12.8028 28 14.609H30C30 12.0811 28.6528 9.865 26.6392 8.68755L25.6296 10.414ZM28 14.609C28 15.5892 27.7176 16.4966 27.2346 17.2539L28.9207 18.3295C29.6043 17.2578 30 15.9784 30 14.609H28ZM27.1366 18.1301C27.2866 18.5472 27.369 19.0002 27.369 19.4761H29.369C29.369 18.7678 29.2461 18.0858 29.0186 17.4532L27.1366 18.1301ZM27.369 19.4761C27.369 20.7348 26.789 21.8462 25.8974 22.5507L27.1372 24.12C28.4978 23.045 29.369 21.3607 29.369 19.4761H27.369ZM25.5177 23.3637C25.5183 23.3849 25.5184 23.4086 25.5184 23.449H27.5184C27.5184 23.4134 27.5184 23.3613 27.5169 23.307L25.5177 23.3637ZM25.5184 23.449C25.5184 25.0581 24.5702 26.4247 23.2397 27.0096L24.0445 28.8405C26.0967 27.9384 27.5184 25.8564 27.5184 23.449H25.5184ZM22.8165 27.3607C22.1331 28.3607 21.0135 29 19.7585 29V31C21.716 31 23.4358 29.999 24.4677 28.4893L22.8165 27.3607ZM19.7585 29C17.7175 29 16.0182 27.2937 16.0182 25.1331H14.0182C14.0182 28.3483 16.5635 31 19.7585 31V29ZM16.0182 25.1331V5.68438H14.0182V25.1331H16.0182ZM14 4.31981C13.9987 4.4807 14.0182 5.57038 14.0182 5.68438H16.0182C16.0182 5.38116 15.998 4.57672 16 4.33577L14 4.31981ZM16.7775 18.2891C17.8991 20.2835 20.4067 20.9878 22.3775 19.8197L21.3577 18.0992C20.3745 18.682 19.1048 18.3472 18.5208 17.3088L16.7775 18.2891ZM22.3775 19.8197C24.3323 18.661 24.9828 16.1179 23.8696 14.1383L22.1263 15.1187C22.7186 16.1719 22.357 17.5069 21.3577 18.0992L22.3775 19.8197ZM22.5363 22.4561C22.0314 22.1741 21.8016 21.8063 21.7269 21.4134C21.6466 20.9911 21.7291 20.436 22.0589 19.8137L20.2917 18.8771C19.8064 19.7929 19.5765 20.8112 19.7621 21.7871C19.9532 22.7923 20.5677 23.6474 21.5609 24.2022L22.5363 22.4561ZM20.3389 9.78597C22.5475 9.23148 23.8614 6.96394 23.3344 4.75156L21.3888 5.21497C21.6721 6.40433 20.9567 7.56879 19.8519 7.84616L20.3389 9.78597Z" fill="#000000"/>
</svg>
