<svg width="36" height="36" viewBox="0 0 36 36" fill="none" xmlns="http://www.w3.org/2000/svg">
<ellipse cx="18.5" cy="5.5" rx="12.5" ry="2.5" stroke="#000000" stroke-width="2" stroke-linecap="round"/>
<path stroke="#000000" d="M31 15.1358C31 16.5166 25.4036 17.6358 18.5 17.6358C11.5964 17.6358 6 16.5166 6 15.1358C6 14.2313 7.40204 13.4389 11 13" stroke-width="2" stroke-linecap="round"/>
<path stroke="#000000" d="M31 24.7718C31 26.1525 25.4036 27.2718 18.5 27.2718C11.5964 27.2718 6 26.1525 6 24.7718C6 23.8673 7.40204 23.0749 11 22.636" stroke-width="2" stroke-linecap="round"/>
<path stroke="#000000" d="M6 6V11C6 12.3807 11.5964 13.5 18.5 13.5C25.4036 13.5 31 12.3807 31 11V6" stroke-width="2" stroke-linecap="round"/>
<path stroke="#000000" d="M6 15.6359V20.6359C6 22.0166 11.5964 23.1359 18.5 23.1359C25.4036 23.1359 31 22.0166 31 20.6359V15.6359" stroke-width="2" stroke-linecap="round"/>
<path stroke="#000000" d="M6 25.2719V30.2719C6 31.6526 11.5964 32.7719 18.5 32.7719C25.4036 32.7719 31 31.6526 31 30.2719V25.2719" stroke-width="2" stroke-linecap="round"/>
<path stroke="#000000" d="M9.17969 9.75C11.4686 10.2619 14.7962 10.5841 18.5001 10.5841C22.204 10.5841 25.5316 10.2619 27.8206 9.75" stroke-width="2" stroke-linecap="round" stroke-dasharray="0.1 4"/>
<path stroke="#000000" d="M9.17969 19.3859C11.4686 19.8978 14.7962 20.2199 18.5001 20.2199C22.204 20.2199 25.5316 19.8978 27.8206 19.3859" stroke-width="2" stroke-linecap="round" stroke-dasharray="0.1 4"/>
<path stroke="#000000" d="M9.17969 29.0219C11.4686 29.5337 14.7962 29.8559 18.5001 29.8559C22.204 29.8559 25.5316 29.5337 27.8206 29.0219" stroke-width="2" stroke-linecap="round" stroke-dasharray="0.1 4"/>
</svg>
